# xmcd
#
# Track frame offsets:
# 150
# 15301
# 30451
# 44726
# 59760
# 71322
# 88539
# 101118
# 115205
# 130025
# 145720
# 165469
# 184871
# 197769
#
# Disc length: 2821 seconds
#
#
# Revision: 0
# Processed by: cddbd v1.5.2PL0 Copyright (c) Steve Scherf et al.
# Submitted via: FreeRIP 2.951 
#
DISCID=bc0b030e
DTITLE=Dois a Um - Oito Anos
DYEAR=2007
DGENRE=Ballad
TTITLE0=Dois a Um - Só com você
TTITLE1=Dois a Um - Eu te esqueci
TTITLE2=Dois a Um - Perto de mim
TTITLE3=Dois a Um - Mulher boa
TTITLE4=Dois a Um - Ex-amor
TTITLE5=Dois a Um - Mãe lua
TTITLE6=Dois a Um - Mensagem de celular
TTITLE7=Dois a Um - Amor perfeito
TTITLE8=Dois a Um - Cheiro de cerveja
TTITLE9=Dois a Um - Telefone mudo/ Toalha branca
TTITLE10=Dois a Um - Cai na real
TTITLE11=Dois a Um - Apaixonados como nós
TTITLE12=Dois a Um - Espinhos da vida
TTITLE13=Dois a Um - Na base do shenhenhem
EXTD=
EXTT0=
EXTT1=
EXTT2=
EXTT3=
EXTT4=
EXTT5=
EXTT6=
EXTT7=
EXTT8=
EXTT9=
EXTT10=
EXTT11=
EXTT12=
EXTT13=
PLAYORDER=
